<svg xmlns="http://www.w3.org/2000/svg" width="329" height="315" viewBox="0 0 329 315" fill="none">
  <g opacity="0.4">
    <path d="M226.201 136.339C356.303 179.042 158.479 317.231 145.937 223.37C139.656 176.37 51.8955 213.417 51.8955 166C51.8955 118.583 91.9665 126.239 131.307 99.6869C180.438 66.5254 192.581 125.305 226.201 136.339Z" stroke="url(#paint0_linear_248_239)" stroke-miterlimit="10"/>
    <path d="M227.153 134.04C349.72 179.167 164.496 314.748 145.979 225.37C136.765 180.898 50.4355 208.411 53.0307 162.525C55.6003 116.656 94.5071 120.603 133.096 98.1262C181.158 69.875 194.701 122.087 227.153 134.037V134.04Z" stroke="url(#paint1_linear_248_239)" stroke-miterlimit="10"/>
    <path d="M228.102 131.74C343.089 179.09 170.584 312.372 146.017 227.371C133.909 185.475 48.969 203.407 54.1628 159.054C59.2987 114.729 97.1217 115.131 134.88 96.5718C181.972 73.4236 196.778 118.843 228.102 131.74Z" stroke="url(#paint2_linear_248_239)" stroke-miterlimit="10"/>
    <path d="M229.05 129.444C336.432 178.785 176.772 310.098 146.056 229.375C131.108 190.096 47.5057 198.407 55.2916 155.582C62.997 112.806 99.6752 109.581 136.665 95.0143C182.712 76.8792 198.827 115.555 229.05 129.444Z" stroke="url(#paint3_linear_248_239)" stroke-miterlimit="10"/>
    <path d="M229.999 127.145C329.765 178.223 183.091 307.895 146.091 231.376C128.378 194.74 46.0392 193.4 56.4204 152.111C66.6922 110.882 102.209 104.032 138.447 93.4567C183.425 80.3315 200.846 112.221 229.996 127.145H229.999Z" stroke="url(#paint4_linear_248_239)" stroke-miterlimit="10"/>
    <path d="M230.948 124.845C323.118 177.385 189.568 305.731 146.13 233.377C125.731 199.393 44.5727 188.397 57.5524 148.636C70.3938 108.952 104.724 98.4698 140.232 91.8992C184.117 83.7774 202.847 108.83 230.945 124.845H230.948Z" stroke="url(#paint5_linear_248_239)" stroke-miterlimit="10"/>
    <path d="M231.897 122.549C316.518 176.254 196.212 303.563 146.168 235.377C123.168 204.04 43.1095 183.39 58.6844 145.164C74.0921 107.028 107.223 92.8979 142.02 90.3416C184.789 87.1976 204.837 105.374 231.897 122.549Z" stroke="url(#paint6_linear_248_239)" stroke-miterlimit="10"/>
    <path d="M232.845 120.25C310.003 174.822 203.024 301.331 146.207 237.378C120.688 208.655 41.6462 178.387 59.8164 141.69C77.7937 105.098 109.706 87.3003 143.805 88.7808C185.439 90.5889 206.828 101.845 232.845 120.247V120.25Z" stroke="url(#paint7_linear_248_239)" stroke-miterlimit="10"/>
    <path d="M233.794 117.95C303.609 173.085 209.986 298.993 146.246 239.379C118.276 213.218 40.1797 173.383 60.9452 138.218C81.4921 103.175 112.176 81.6771 145.59 87.2265C186.082 93.9513 208.838 98.2418 233.794 117.95Z" stroke="url(#paint8_linear_248_239)" stroke-miterlimit="10"/>
    <path d="M234.746 115.651C297.377 171.058 217.061 296.507 146.287 241.38C115.913 217.721 38.7197 168.377 62.0805 134.746C85.1937 101.251 114.658 76.0217 147.378 85.6689C186.731 97.2719 210.893 94.5518 234.746 115.651Z" stroke="url(#paint9_linear_248_239)" stroke-miterlimit="10"/>
    <path d="M235.695 113.355C291.341 168.772 224.207 293.858 146.323 243.383C113.575 222.159 37.2532 163.376 63.2093 131.275C88.892 99.324 117.151 70.3374 149.159 84.1114C187.391 100.56 213.009 90.7655 235.691 113.355H235.695Z" stroke="url(#paint10_linear_248_239)" stroke-miterlimit="10"/>
    <path d="M236.643 111.055C285.542 166.257 231.379 291.035 146.361 245.384C111.243 226.527 35.7867 158.373 64.3413 127.803C92.5904 97.4004 119.666 64.6371 150.947 82.557C188.085 103.833 215.235 86.8893 236.643 111.059V111.055Z" stroke="url(#paint11_linear_248_239)" stroke-miterlimit="10"/>
    <path d="M237.592 108.756C280.017 163.579 238.541 288.052 146.4 247.385C108.902 230.833 34.3234 153.366 65.4733 124.328C96.292 95.4735 122.206 58.9207 152.732 80.9963C188.806 107.083 217.595 82.9167 237.592 108.756Z" stroke="url(#paint12_linear_248_239)" stroke-miterlimit="10"/>
    <path d="M238.541 106.457C274.798 160.814 245.661 284.933 146.439 249.382C106.538 235.085 32.8602 148.36 66.6054 120.854C99.9936 93.5434 124.773 53.2043 154.52 79.4355C189.558 110.333 220.139 78.8606 238.544 106.457H238.541Z" stroke="url(#paint13_linear_248_239)" stroke-miterlimit="10"/>
    <path d="M239.489 104.16C269.896 158.052 252.723 281.709 146.477 251.386C104.145 239.305 31.3969 143.356 67.7342 117.382C103.689 91.6198 127.355 47.4944 156.302 77.8811C190.327 113.596 222.895 74.75 239.489 104.16Z" stroke="url(#paint14_linear_248_239)" stroke-miterlimit="10"/>
    <path d="M240.438 101.861C265.32 155.39 259.715 278.395 146.513 253.387C101.717 243.493 29.9272 138.353 68.863 113.91C107.387 89.6929 129.95 41.794 158.084 76.3236C191.115 116.865 225.908 70.6136 240.435 101.861H240.438Z" stroke="url(#paint15_linear_248_239)" stroke-miterlimit="10"/>
    <path d="M241.39 99.5617C261.059 152.942 266.639 275.02 146.554 255.388C99.2603 247.655 28.4672 133.349 69.9982 110.436C111.089 87.766 132.568 36.0969 159.875 74.7628C191.925 120.144 229.205 66.4869 241.39 99.5617Z" stroke="url(#paint16_linear_248_239)" stroke-miterlimit="10"/>
    <path d="M177.148 259.852C89.452 437.904 -20.6789 120.012 95.3469 123.683C153.45 125.523 133.668 -9.87204 190.507 1.13682C247.347 12.1457 226.922 68.2594 247.713 131.262C273.676 209.942 199.811 213.841 177.152 259.852H177.148Z" stroke="url(#paint17_linear_248_239)" stroke-miterlimit="10"/>
    <path d="M179.637 261.756C91.015 428.604 -19.4793 129.283 92.9381 123.275C148.79 120.291 140.078 -10.8258 194.351 3.57753C248.614 17.9392 232.961 73.234 249.077 134.203C269.456 210.199 203.034 217.711 179.637 261.756Z" stroke="url(#paint18_linear_248_239)" stroke-miterlimit="10"/>
    <path d="M182.127 263.66C92.8031 419.291 -18.4759 138.651 90.5294 122.867C144.043 115.118 146.487 -11.7796 198.197 6.01824C249.887 23.7294 238.786 78.2503 250.443 137.142C264.967 210.511 206.298 221.545 182.127 263.66Z" stroke="url(#paint19_linear_248_239)" stroke-miterlimit="10"/>
    <path d="M184.616 265.565C94.8452 409.978 -17.6526 148.177 88.1206 122.456C139.222 110.031 152.897 -12.7334 202.043 8.45894C251.157 29.5229 244.722 83.2216 251.81 140.084C260.619 210.768 209.61 225.357 184.616 265.565Z" stroke="url(#paint20_linear_248_239)" stroke-miterlimit="10"/>
    <path d="M187.105 267.469C97.1704 400.69 -16.958 157.907 85.7119 122.048C134.35 105.06 159.309 -13.6873 205.889 10.8996C252.428 35.3131 250.672 88.1737 253.177 143.025C256.284 211.002 212.981 229.14 187.105 267.469Z" stroke="url(#paint21_linear_248_239)" stroke-miterlimit="10"/>
    <path d="M189.594 269.377C99.8107 391.457 -16.3244 167.885 83.2999 121.637C129.452 100.213 165.716 -14.6411 209.733 13.3404C253.698 41.1066 256.628 93.1065 254.541 145.967C251.965 211.214 216.412 232.908 189.591 269.377H189.594Z" stroke="url(#paint22_linear_248_239)" stroke-miterlimit="10"/>
    <path d="M192.083 271.281C102.789 382.314 -15.6716 178.12 80.8911 121.229C124.57 95.4958 172.125 -15.5949 213.579 15.7811C254.968 46.8968 262.61 98.0264 255.907 148.909C247.675 211.41 219.921 236.665 192.08 271.281H192.083Z" stroke="url(#paint23_linear_248_239)" stroke-miterlimit="10"/>
    <path d="M194.572 273.186C106.124 373.303 -14.9255 188.589 78.4824 120.821C119.737 90.8874 178.534 -16.5487 217.425 18.2218C256.239 52.6903 268.62 102.937 257.277 151.85C243.423 211.593 223.513 240.429 194.572 273.189V273.186Z" stroke="url(#paint24_linear_248_239)" stroke-miterlimit="10"/>
    <path d="M197.058 275.09C109.825 364.468 -14.0218 199.261 76.0736 120.41C114.971 86.3688 184.947 -17.5057 221.271 20.6625C257.512 58.4806 274.66 107.844 258.644 154.789C239.204 211.77 227.198 244.212 197.065 275.09H197.058Z" stroke="url(#paint25_linear_248_239)" stroke-miterlimit="10"/>
    <path d="M199.548 276.994C113.89 355.865 -12.922 210.074 73.6616 120.002C110.282 81.9081 191.353 -18.4563 225.115 23.1032C258.779 64.274 280.725 112.761 260.008 157.731C235.023 211.959 230.984 248.05 199.551 276.994H199.548Z" stroke="url(#paint26_linear_248_239)" stroke-miterlimit="10"/>
    <path d="M202.037 278.899C118.299 347.547 -11.6163 220.974 71.2529 119.591C105.68 77.4763 197.763 -19.4133 228.961 25.5439C260.053 70.0643 286.826 117.693 261.375 160.672C230.877 212.171 234.885 251.974 202.04 278.902L202.037 278.899Z" stroke="url(#paint27_linear_248_239)" stroke-miterlimit="10"/>
    <path d="M204.526 280.806C123.007 339.579 -10.108 231.915 68.8441 119.187C101.155 73.0541 204.172 -20.3639 232.804 27.9878C261.32 75.861 292.943 122.655 262.738 163.617C226.751 212.418 238.892 256.033 204.526 280.81V280.806Z" stroke="url(#paint28_linear_248_239)" stroke-miterlimit="10"/>
    <path d="M207.015 282.711C127.944 332.003 -8.41959 242.844 66.4353 118.776C96.6976 68.6127 210.585 -21.3209 236.65 30.4253C262.59 81.6512 299.075 127.639 264.105 166.556C222.645 212.688 243.015 260.269 207.015 282.711Z" stroke="url(#paint29_linear_248_239)" stroke-miterlimit="10"/>
    <path d="M209.504 284.615C133.012 324.874 -6.58006 253.737 64.0266 118.365C92.2982 64.1552 216.994 -22.2747 240.497 32.866C263.864 87.4415 305.215 132.656 265.472 169.494C218.544 212.996 247.234 264.759 209.504 284.615Z" stroke="url(#paint30_linear_248_239)" stroke-miterlimit="10"/>
    <path d="M211.993 286.52C138.071 318.22 -4.61832 264.579 61.6146 117.957C87.9469 59.6688 223.404 -23.2285 244.34 35.3067C265.131 93.2349 311.344 137.698 266.835 172.436C214.431 213.334 251.514 269.57 211.99 286.52H211.993Z" stroke="url(#paint31_linear_248_239)" stroke-miterlimit="10"/>
    <path d="M214.482 288.424C142.956 312.054 -2.56332 275.357 59.2058 117.546C83.6279 55.1535 229.813 -24.1823 248.186 37.7474C266.404 99.0252 317.471 142.762 268.202 175.378C210.311 213.7 255.808 274.772 214.479 288.427L214.482 288.424Z" stroke="url(#paint32_linear_248_239)" stroke-miterlimit="10"/>
    <path d="M216.972 290.328C147.465 306.35 -0.431118 286.07 56.7971 117.138C79.3378 50.6061 236.222 -25.1361 252.032 40.1881C267.675 104.819 323.584 147.843 269.572 178.319C206.182 214.085 260.037 280.405 216.972 290.332V290.328Z" stroke="url(#paint33_linear_248_239)" stroke-miterlimit="10"/>
    <path d="M79.6141 213.006C-123.674 195.899 123.47 -58.7216 170.443 66.9169C193.964 129.833 311.003 50.3876 325.469 115.901C339.934 181.415 278.998 183.737 229.568 233.09C167.838 294.725 132.147 217.428 79.6141 213.006Z" stroke="url(#paint34_linear_248_239)" stroke-miterlimit="10"/>
    <path d="M78.9291 216.487C-114.174 193.59 115.421 -53.381 169.777 64.1647C196.814 122.629 314.673 56.833 324.874 121.062C335.11 185.265 277.007 192.334 227.433 235.814C165.767 290.322 130.008 222.541 78.9291 216.484V216.487Z" stroke="url(#paint35_linear_248_239)" stroke-miterlimit="10"/>
    <path d="M78.2409 219.968C-104.552 191.537 107.22 -48.1784 169.108 61.4125C199.579 115.371 318.339 63.2751 324.279 126.226C330.289 189.119 274.862 200.738 225.298 238.544C163.503 285.678 127.928 227.695 78.2409 219.968Z" stroke="url(#paint36_linear_248_239)" stroke-miterlimit="10"/>
    <path d="M77.5527 223.45C-94.8233 189.784 98.8295 -43.0818 168.439 58.6603C202.245 108.072 322.005 69.7173 323.681 131.387C325.462 192.97 272.82 209.226 223.159 241.27C161.367 281.14 125.898 232.891 77.5527 223.45Z" stroke="url(#paint37_linear_248_239)" stroke-miterlimit="10"/>
    <path d="M76.8677 226.931C-84.9953 188.368 90.214 -38.0462 167.777 55.9081C204.802 100.759 325.678 76.1595 323.089 136.551C320.645 196.823 270.807 217.714 221.027 243.997C159.27 276.602 123.927 238.142 76.8677 226.931Z" stroke="url(#paint38_linear_248_239)" stroke-miterlimit="10"/>
    <path d="M76.1795 230.412C-75.0998 187.334 81.3507 -33.0043 167.108 53.1559C207.227 93.4628 329.344 82.6017 322.491 141.712C315.817 200.674 268.819 226.205 218.888 246.723C157.203 272.071 121.997 243.457 76.1795 230.412Z" stroke="url(#paint39_linear_248_239)" stroke-miterlimit="10"/>
    <path d="M75.4945 233.893C-65.1689 186.711 72.2463 -27.882 166.442 50.4036C209.533 86.2178 333.013 89.0439 321.899 146.876C310.997 204.528 266.867 234.715 216.756 249.453C155.177 267.562 120.113 248.859 75.4945 233.893Z" stroke="url(#paint40_linear_248_239)" stroke-miterlimit="10"/>
    <path d="M74.8062 237.375C-55.2476 186.534 62.9264 -22.5992 165.776 47.6514C211.739 79.0466 336.683 95.486 321.304 152.037C306.176 208.378 264.934 243.245 214.617 252.176C153.176 263.082 118.244 254.353 74.8062 237.371V237.375Z" stroke="url(#paint41_linear_248_239)" stroke-miterlimit="10"/>
    <path d="M74.1212 240.856C-45.381 186.82 53.4426 -17.1044 165.107 44.8992C213.865 71.9718 340.349 101.931 320.706 157.201C301.349 212.232 263.021 251.816 212.479 254.906C151.198 258.65 116.379 259.967 74.1148 240.856H74.1212Z" stroke="url(#paint42_linear_248_239)" stroke-miterlimit="10"/>
    <path d="M73.433 244.337C-35.6334 187.571 43.8589 -11.3623 164.442 42.147C215.955 65.0061 344.015 108.374 320.114 162.361C296.531 216.083 261.117 260.426 210.347 257.632C149.23 254.27 114.501 265.712 73.433 244.337Z" stroke="url(#paint43_linear_248_239)" stroke-miterlimit="10"/>
    <path d="M72.7448 247.818C-26.0691 188.772 34.2432 -5.36006 163.776 39.3948C218.036 58.14 347.685 114.816 319.519 167.525C291.707 219.936 259.197 269.078 208.211 260.359C147.249 249.935 112.559 271.609 72.7448 247.818Z" stroke="url(#paint44_linear_248_239)" stroke-miterlimit="10"/>
    <path d="M72.0598 251.299C-16.7557 190.381 24.6532 0.883007 163.11 36.6426C220.133 51.3703 351.354 121.258 318.924 172.686C286.887 223.787 257.258 277.762 206.076 263.085C145.242 245.641 110.51 277.672 72.0598 251.299Z" stroke="url(#paint45_linear_248_239)" stroke-miterlimit="10"/>
    <path d="M71.3716 254.781C-7.77345 192.337 15.1371 7.33482 162.441 33.8903C222.262 44.6744 355.02 127.7 318.326 177.85C282.059 227.641 255.286 286.474 203.937 265.815C143.194 241.376 108.301 283.921 71.3716 254.784V254.781Z" stroke="url(#paint46_linear_248_239)" stroke-miterlimit="10"/>
    <path d="M70.6866 258.262C0.806763 194.543 5.724 13.9536 161.776 31.1349C224.442 38.0363 358.69 134.139 317.734 183.008C277.242 231.488 253.289 295.19 201.805 268.535C141.116 237.114 105.869 290.341 70.6866 258.259V258.262Z" stroke="url(#paint47_linear_248_239)" stroke-miterlimit="10"/>
    <path d="M69.9984 261.743C8.92386 196.875 -3.5766 20.6977 161.11 28.3827C226.674 31.4432 362.359 140.585 317.139 188.172C272.418 235.342 251.257 303.919 199.669 271.265C139.003 232.866 103.139 296.937 70.0016 261.743H69.9984Z" stroke="url(#paint48_linear_248_239)" stroke-miterlimit="10"/>
    <path d="M69.3134 265.224C16.5232 199.181 -12.755 27.5317 160.441 25.6305C228.961 24.879 366.025 147.027 316.541 193.333C267.594 239.192 249.199 312.638 197.531 273.992C136.852 228.607 100.039 303.669 69.3101 265.224H69.3134Z" stroke="url(#paint49_linear_248_239)" stroke-miterlimit="10"/>
    <path d="M68.6251 268.705C23.579 201.287 -21.8208 34.4202 159.775 22.8783C231.295 18.3341 369.695 153.469 315.949 198.497C262.773 243.046 247.128 321.351 195.399 276.718C134.688 224.339 96.5333 310.474 68.6284 268.702L68.6251 268.705Z" stroke="url(#paint50_linear_248_239)" stroke-miterlimit="10"/>
  </g>
  <defs>
    <linearGradient id="paint0_linear_248_239" x1="299.225" y1="0.500006" x2="9.60077" y2="294.632" gradientUnits="userSpaceOnUse">
      <stop stop-color="#22D3EE"/><stop offset="0.55" stop-color="#2563EB"/><stop offset="1" stop-color="#4F46E5"/>
    </linearGradient>
    <linearGradient id="paint1_linear_248_239" x1="299.225" y1="0.500006" x2="9.60077" y2="294.632" gradientUnits="userSpaceOnUse">
      <stop stop-color="#22D3EE"/><stop offset="0.55" stop-color="#2563EB"/><stop offset="1" stop-color="#4F46E5"/>
    </linearGradient>
    <linearGradient id="paint2_linear_248_239" x1="299.225" y1="0.500006" x2="9.60077" y2="294.632" gradientUnits="userSpaceOnUse">
      <stop stop-color="#22D3EE"/><stop offset="0.55" stop-color="#2563EB"/><stop offset="1" stop-color="#4F46E5"/>
    </linearGradient>
    <linearGradient id="paint3_linear_248_239" x1="299.225" y1="0.500006" x2="9.60077" y2="294.632" gradientUnits="userSpaceOnUse">
      <stop stop-color="#22D3EE"/><stop offset="0.55" stop-color="#2563EB"/><stop offset="1" stop-color="#4F46E5"/>
    </linearGradient>
    <linearGradient id="paint4_linear_248_239" x1="299.225" y1="0.500006" x2="9.60077" y2="294.632" gradientUnits="userSpaceOnUse">
      <stop stop-color="#22D3EE"/><stop offset="0.55" stop-color="#2563EB"/><stop offset="1" stop-color="#4F46E5"/>
    </linearGradient>
    <linearGradient id="paint5_linear_248_239" x1="299.225" y1="0.500006" x2="9.60077" y2="294.632" gradientUnits="userSpaceOnUse">
      <stop stop-color="#22D3EE"/><stop offset="0.55" stop-color="#2563EB"/><stop offset="1" stop-color="#4F46E5"/>
    </linearGradient>
    <linearGradient id="paint6_linear_248_239" x1="299.225" y1="0.500006" x2="9.60077" y2="294.632" gradientUnits="userSpaceOnUse">
      <stop stop-color="#22D3EE"/><stop offset="0.55" stop-color="#2563EB"/><stop offset="1" stop-color="#4F46E5"/>
    </linearGradient>
    <linearGradient id="paint7_linear_248_239" x1="299.225" y1="0.500006" x2="9.60077" y2="294.632" gradientUnits="userSpaceOnUse">
      <stop stop-color="#22D3EE"/><stop offset="0.55" stop-color="#2563EB"/><stop offset="1" stop-color="#4F46E5"/>
    </linearGradient>
    <linearGradient id="paint8_linear_248_239" x1="299.225" y1="0.500006" x2="9.60077" y2="294.632" gradientUnits="userSpaceOnUse">
      <stop stop-color="#22D3EE"/><stop offset="0.55" stop-color="#2563EB"/><stop offset="1" stop-color="#4F46E5"/>
    </linearGradient>
    <linearGradient id="paint9_linear_248_239" x1="299.225" y1="0.500006" x2="9.60077" y2="294.632" gradientUnits="userSpaceOnUse">
      <stop stop-color="#22D3EE"/><stop offset="0.55" stop-color="#2563EB"/><stop offset="1" stop-color="#4F46E5"/>
    </linearGradient>
    <linearGradient id="paint10_linear_248_239" x1="299.225" y1="0.500006" x2="9.60077" y2="294.632" gradientUnits="userSpaceOnUse">
      <stop stop-color="#22D3EE"/><stop offset="0.55" stop-color="#2563EB"/><stop offset="1" stop-color="#4F46E5"/>
    </linearGradient>
    <linearGradient id="paint11_linear_248_239" x1="299.225" y1="0.500006" x2="9.60077" y2="294.632" gradientUnits="userSpaceOnUse">
      <stop stop-color="#22D3EE"/><stop offset="0.55" stop-color="#2563EB"/><stop offset="1" stop-color="#4F46E5"/>
    </linearGradient>
    <linearGradient id="paint12_linear_248_239" x1="299.225" y1="0.500006" x2="9.60077" y2="294.632" gradientUnits="userSpaceOnUse">
      <stop stop-color="#22D3EE"/><stop offset="0.55" stop-color="#2563EB"/><stop offset="1" stop-color="#4F46E5"/>
    </linearGradient>
    <linearGradient id="paint13_linear_248_239" x1="299.225" y1="0.500006" x2="9.60077" y2="294.632" gradientUnits="userSpaceOnUse">
      <stop stop-color="#22D3EE"/><stop offset="0.55" stop-color="#2563EB"/><stop offset="1" stop-color="#4F46E5"/>
    </linearGradient>
    <linearGradient id="paint14_linear_248_239" x1="299.225" y1="0.500006" x2="9.60077" y2="294.632" gradientUnits="userSpaceOnUse">
      <stop stop-color="#22D3EE"/><stop offset="0.55" stop-color="#2563EB"/><stop offset="1" stop-color="#4F46E5"/>
    </linearGradient>
    <linearGradient id="paint15_linear_248_239" x1="299.225" y1="0.500006" x2="9.60077" y2="294.632" gradientUnits="userSpaceOnUse">
      <stop stop-color="#22D3EE"/><stop offset="0.55" stop-color="#2563EB"/><stop offset="1" stop-color="#4F46E5"/>
    </linearGradient>
    <linearGradient id="paint16_linear_248_239" x1="299.225" y1="0.500006" x2="9.60077" y2="294.632" gradientUnits="userSpaceOnUse">
      <stop stop-color="#22D3EE"/><stop offset="0.55" stop-color="#2563EB"/><stop offset="1" stop-color="#4F46E5"/>
    </linearGradient>
    <linearGradient id="paint17_linear_248_239" x1="299.225" y1="0.500006" x2="9.60077" y2="294.632" gradientUnits="userSpaceOnUse">
      <stop stop-color="#22D3EE"/><stop offset="0.55" stop-color="#2563EB"/><stop offset="1" stop-color="#4F46E5"/>
    </linearGradient>
    <linearGradient id="paint18_linear_248_239" x1="299.225" y1="0.500006" x2="9.60077" y2="294.632" gradientUnits="userSpaceOnUse">
      <stop stop-color="#22D3EE"/><stop offset="0.55" stop-color="#2563EB"/><stop offset="1" stop-color="#4F46E5"/>
    </linearGradient>
    <linearGradient id="paint19_linear_248_239" x1="299.225" y1="0.500006" x2="9.60077" y2="294.632" gradientUnits="userSpaceOnUse">
      <stop stop-color="#22D3EE"/><stop offset="0.55" stop-color="#2563EB"/><stop offset="1" stop-color="#4F46E5"/>
    </linearGradient>
    <linearGradient id="paint20_linear_248_239" x1="299.225" y1="0.500006" x2="9.60077" y2="294.632" gradientUnits="userSpaceOnUse">
      <stop stop-color="#22D3EE"/><stop offset="0.55" stop-color="#2563EB"/><stop offset="1" stop-color="#4F46E5"/>
    </linearGradient>
    <linearGradient id="paint21_linear_248_239" x1="299.225" y1="0.500006" x2="9.60077" y2="294.632" gradientUnits="userSpaceOnUse">
      <stop stop-color="#22D3EE"/><stop offset="0.55" stop-color="#2563EB"/><stop offset="1" stop-color="#4F46E5"/>
    </linearGradient>
    <linearGradient id="paint22_linear_248_239" x1="299.225" y1="0.500006" x2="9.60077" y2="294.632" gradientUnits="userSpaceOnUse">
      <stop stop-color="#22D3EE"/><stop offset="0.55" stop-color="#2563EB"/><stop offset="1" stop-color="#4F46E5"/>
    </linearGradient>
    <linearGradient id="paint23_linear_248_239" x1="299.225" y1="0.500006" x2="9.60077" y2="294.632" gradientUnits="userSpaceOnUse">
      <stop stop-color="#22D3EE"/><stop offset="0.55" stop-color="#2563EB"/><stop offset="1" stop-color="#4F46E5"/>
    </linearGradient>
    <linearGradient id="paint24_linear_248_239" x1="299.225" y1="0.500006" x2="9.60077" y2="294.632" gradientUnits="userSpaceOnUse">
      <stop stop-color="#22D3EE"/><stop offset="0.55" stop-color="#2563EB"/><stop offset="1" stop-color="#4F46E5"/>
    </linearGradient>
    <linearGradient id="paint25_linear_248_239" x1="299.225" y1="0.500006" x2="9.60077" y2="294.632" gradientUnits="userSpaceOnUse">
      <stop stop-color="#22D3EE"/><stop offset="0.55" stop-color="#2563EB"/><stop offset="1" stop-color="#4F46E5"/>
    </linearGradient>
    <linearGradient id="paint26_linear_248_239" x1="299.225" y1="0.500006" x2="9.60077" y2="294.632" gradientUnits="userSpaceOnUse">
      <stop stop-color="#22D3EE"/><stop offset="0.55" stop-color="#2563EB"/><stop offset="1" stop-color="#4F46E5"/>
    </linearGradient>
    <linearGradient id="paint27_linear_248_239" x1="299.225" y1="0.500006" x2="9.60077" y2="294.632" gradientUnits="userSpaceOnUse">
      <stop stop-color="#22D3EE"/><stop offset="0.55" stop-color="#2563EB"/><stop offset="1" stop-color="#4F46E5"/>
    </linearGradient>
    <linearGradient id="paint28_linear_248_239" x1="299.225" y1="0.500006" x2="9.60077" y2="294.632" gradientUnits="userSpaceOnUse">
      <stop stop-color="#22D3EE"/><stop offset="0.55" stop-color="#2563EB"/><stop offset="1" stop-color="#4F46E5"/>
    </linearGradient>
    <linearGradient id="paint29_linear_248_239" x1="299.225" y1="0.500006" x2="9.60077" y2="294.632" gradientUnits="userSpaceOnUse">
      <stop stop-color="#22D3EE"/><stop offset="0.55" stop-color="#2563EB"/><stop offset="1" stop-color="#4F46E5"/>
    </linearGradient>
    <linearGradient id="paint30_linear_248_239" x1="299.225" y1="0.500006" x2="9.60077" y2="294.632" gradientUnits="userSpaceOnUse">
      <stop stop-color="#22D3EE"/><stop offset="0.55" stop-color="#2563EB"/><stop offset="1" stop-color="#4F46E5"/>
    </linearGradient>
    <linearGradient id="paint31_linear_248_239" x1="299.225" y1="0.500006" x2="9.60077" y2="294.632" gradientUnits="userSpaceOnUse">
      <stop stop-color="#22D3EE"/><stop offset="0.55" stop-color="#2563EB"/><stop offset="1" stop-color="#4F46E5"/>
    </linearGradient>
    <linearGradient id="paint32_linear_248_239" x1="299.225" y1="0.500006" x2="9.60077" y2="294.632" gradientUnits="userSpaceOnUse">
      <stop stop-color="#22D3EE"/><stop offset="0.55" stop-color="#2563EB"/><stop offset="1" stop-color="#4F46E5"/>
    </linearGradient>
    <linearGradient id="paint33_linear_248_239" x1="299.225" y1="0.500006" x2="9.60077" y2="294.632" gradientUnits="userSpaceOnUse">
      <stop stop-color="#22D3EE"/><stop offset="0.55" stop-color="#2563EB"/><stop offset="1" stop-color="#4F46E5"/>
    </linearGradient>
    <linearGradient id="paint34_linear_248_239" x1="299.225" y1="0.500006" x2="9.60077" y2="294.632" gradientUnits="userSpaceOnUse">
      <stop stop-color="#22D3EE"/><stop offset="0.55" stop-color="#2563EB"/><stop offset="1" stop-color="#4F46E5"/>
    </linearGradient>
    <linearGradient id="paint35_linear_248_239" x1="299.225" y1="0.500006" x2="9.60077" y2="294.632" gradientUnits="userSpaceOnUse">
      <stop stop-color="#22D3EE"/><stop offset="0.55" stop-color="#2563EB"/><stop offset="1" stop-color="#4F46E5"/>
    </linearGradient>
    <linearGradient id="paint36_linear_248_239" x1="299.225" y1="0.500006" x2="9.60077" y2="294.632" gradientUnits="userSpaceOnUse">
      <stop stop-color="#22D3EE"/><stop offset="0.55" stop-color="#2563EB"/><stop offset="1" stop-color="#4F46E5"/>
    </linearGradient>
    <linearGradient id="paint37_linear_248_239" x1="299.225" y1="0.500006" x2="9.60077" y2="294.632" gradientUnits="userSpaceOnUse">
      <stop stop-color="#22D3EE"/><stop offset="0.55" stop-color="#2563EB"/><stop offset="1" stop-color="#4F46E5"/>
    </linearGradient>
    <linearGradient id="paint38_linear_248_239" x1="299.225" y1="0.500006" x2="9.60077" y2="294.632" gradientUnits="userSpaceOnUse">
      <stop stop-color="#22D3EE"/><stop offset="0.55" stop-color="#2563EB"/><stop offset="1" stop-color="#4F46E5"/>
    </linearGradient>
    <linearGradient id="paint39_linear_248_239" x1="299.225" y1="0.500006" x2="9.60077" y2="294.632" gradientUnits="userSpaceOnUse">
      <stop stop-color="#22D3EE"/><stop offset="0.55" stop-color="#2563EB"/><stop offset="1" stop-color="#4F46E5"/>
    </linearGradient>
    <linearGradient id="paint40_linear_248_239" x1="299.225" y1="0.500006" x2="9.60077" y2="294.632" gradientUnits="userSpaceOnUse">
      <stop stop-color="#22D3EE"/><stop offset="0.55" stop-color="#2563EB"/><stop offset="1" stop-color="#4F46E5"/>
    </linearGradient>
    <linearGradient id="paint41_linear_248_239" x1="299.225" y1="0.500006" x2="9.60077" y2="294.632" gradientUnits="userSpaceOnUse">
      <stop stop-color="#22D3EE"/><stop offset="0.55" stop-color="#2563EB"/><stop offset="1" stop-color="#4F46E5"/>
    </linearGradient>
    <linearGradient id="paint42_linear_248_239" x1="299.225" y1="0.500006" x2="9.60077" y2="294.632" gradientUnits="userSpaceOnUse">
      <stop stop-color="#22D3EE"/><stop offset="0.55" stop-color="#2563EB"/><stop offset="1" stop-color="#4F46E5"/>
    </linearGradient>
    <linearGradient id="paint43_linear_248_239" x1="299.225" y1="0.500006" x2="9.60077" y2="294.632" gradientUnits="userSpaceOnUse">
      <stop stop-color="#22D3EE"/><stop offset="0.55" stop-color="#2563EB"/><stop offset="1" stop-color="#4F46E5"/>
    </linearGradient>
    <linearGradient id="paint44_linear_248_239" x1="299.225" y1="0.500006" x2="9.60077" y2="294.632" gradientUnits="userSpaceOnUse">
      <stop stop-color="#22D3EE"/><stop offset="0.55" stop-color="#2563EB"/><stop offset="1" stop-color="#4F46E5"/>
    </linearGradient>
    <linearGradient id="paint45_linear_248_239" x1="299.225" y1="0.500006" x2="9.60077" y2="294.632" gradientUnits="userSpaceOnUse">
      <stop stop-color="#22D3EE"/><stop offset="0.55" stop-color="#2563EB"/><stop offset="1" stop-color="#4F46E5"/>
    </linearGradient>
    <linearGradient id="paint46_linear_248_239" x1="299.225" y1="0.500006" x2="9.60077" y2="294.632" gradientUnits="userSpaceOnUse">
      <stop stop-color="#22D3EE"/><stop offset="0.55" stop-color="#2563EB"/><stop offset="1" stop-color="#4F46E5"/>
    </linearGradient>
    <linearGradient id="paint47_linear_248_239" x1="299.225" y1="0.500006" x2="9.60077" y2="294.632" gradientUnits="userSpaceOnUse">
      <stop stop-color="#22D3EE"/><stop offset="0.55" stop-color="#2563EB"/><stop offset="1" stop-color="#4F46E5"/>
    </linearGradient>
    <linearGradient id="paint48_linear_248_239" x1="299.225" y1="0.500006" x2="9.60077" y2="294.632" gradientUnits="userSpaceOnUse">
      <stop stop-color="#22D3EE"/><stop offset="0.55" stop-color="#2563EB"/><stop offset="1" stop-color="#4F46E5"/>
    </linearGradient>
    <linearGradient id="paint49_linear_248_239" x1="299.225" y1="0.500006" x2="9.60077" y2="294.632" gradientUnits="userSpaceOnUse">
      <stop stop-color="#22D3EE"/><stop offset="0.55" stop-color="#2563EB"/><stop offset="1" stop-color="#4F46E5"/>
    </linearGradient>
    <linearGradient id="paint50_linear_248_239" x1="299.225" y1="0.500006" x2="9.60077" y2="294.632" gradientUnits="userSpaceOnUse">
      <stop stop-color="#22D3EE"/><stop offset="0.55" stop-color="#2563EB"/><stop offset="1" stop-color="#4F46E5"/>
    </linearGradient>
  </defs>
</svg>
