<svg width="1260" height="702" viewBox="0 0 1260 702" fill="none" xmlns="http://www.w3.org/2000/svg">
<g clip-path="url(#clip0_181_1378)">
<mask id="mask0_181_1378" style="mask-type:luminance" maskUnits="userSpaceOnUse" x="0" y="-107" width="1260" height="1113">
<path d="M0 -107H1259.87V1005.65H0V-107Z" fill="white"/>
</mask>
<g mask="url(#mask0_181_1378)">
<path d="M308.031 395.47H215.452V492.235H308.031V395.47Z" fill="url(#paint0_radial_181_1378)" fill-opacity="0.06"/>
<path d="M678.346 105.176H585.767V201.941H678.346V105.176Z" fill="url(#paint1_radial_181_1378)" fill-opacity="0.06"/>
<path d="M585.767 685.762H493.188V782.527H585.767V685.762Z" fill="url(#paint2_radial_181_1378)" fill-opacity="0.06"/>
<path d="M956.083 492.234H863.504V588.998H956.083V492.234Z" fill="url(#paint3_radial_181_1378)" fill-opacity="0.06"/>
<path d="M678.347 395.47H585.768V492.235H678.347V395.47Z" fill="url(#paint4_radial_181_1378)" fill-opacity="0.06"/>
<path d="M30.2929 -281.881H-62.2861V-185.116M30.2929 -281.881V-185.116M30.2929 -281.881H122.872M-62.2861 -185.116H30.2929M-62.2861 -185.116V-88.3524M30.2929 -185.116H122.872M30.2929 -185.116V-88.3524M122.872 -281.881V-185.116M122.872 -281.881H215.451M122.872 -185.116H215.451M122.872 -185.116V-88.3524M30.2929 -88.3524H-62.2861M30.2929 -88.3524H122.872M30.2929 -88.3524V8.41249M-62.2861 -88.3524V8.41249M215.451 -281.881V-185.116M215.451 -281.881H308.03M215.451 -185.116H308.03M215.451 -185.116V-88.3524M122.872 -88.3524H215.451M122.872 -88.3524V8.41249M308.03 -281.881V-185.116M308.03 -281.881H400.609M308.03 -185.116H400.609M308.03 -185.116V-88.3524M215.451 -88.3524H308.03M215.451 -88.3524V8.41249M400.609 -281.881V-185.116M400.609 -281.881H493.188M400.609 -185.116H493.188M400.609 -185.116V-88.3524M308.03 -88.3524H400.609M308.03 -88.3524V8.41249M493.188 -281.881V-185.116M493.188 -281.881H585.767M493.188 -185.116H585.767M493.188 -185.116V-88.3524M400.609 -88.3524H493.188M400.609 -88.3524V8.41249M585.767 -281.881V-185.116M585.767 -281.881H678.346M585.767 -185.116H678.346M585.767 -185.116V-88.3524M493.188 -88.3524H585.767M493.188 -88.3524V8.41249M678.346 -281.881V-185.116M678.346 -281.881H770.925M678.346 -185.116H770.925M678.346 -185.116V-88.3524M585.767 -88.3524H678.346M585.767 -88.3524V8.41249M770.925 -281.881V-185.116M770.925 -281.881H863.504M770.925 -185.116H863.504M770.925 -185.116V-88.3524M678.346 -88.3524H770.925M678.346 -88.3524V8.41249M863.504 -281.881V-185.116M863.504 -281.881H956.083M863.504 -185.116H956.083M863.504 -185.116V-88.3524M770.925 -88.3524H863.504M770.925 -88.3524V8.41249M956.083 -281.881V-185.116M956.083 -281.881H1048.66M956.083 -185.116H1048.66M956.083 -185.116V-88.3524M863.504 -88.3524H956.083M863.504 -88.3524V8.41249M1048.66 -281.881V-185.116M1048.66 -281.881H1141.24M1048.66 -185.116H1141.24M1048.66 -185.116V-88.3524M956.083 -88.3524H1048.66M956.083 -88.3524V8.41249M1141.24 -281.881V-185.116M1141.24 -281.881H1233.82M1141.24 -185.116H1233.82M1141.24 -185.116V-88.3524M1048.66 -88.3524H1141.24M1048.66 -88.3524V8.41249M1233.82 -281.881V-185.116M1233.82 -281.881H1326.4V-185.116M1233.82 -185.116H1326.4M1233.82 -185.116V-88.3524M1141.24 -88.3524H1233.82M1141.24 -88.3524V8.41249M1326.4 -185.116V-88.3524M1233.82 -88.3524H1326.4M1233.82 -88.3524V8.41249M1326.4 -88.3524V8.41249M30.2929 8.41249H-62.2861M30.2929 8.41249H122.872M30.2929 8.41249V105.176M-62.2861 8.41249V105.176M122.872 8.41249H215.451M122.872 8.41249V105.176M215.451 8.41249H308.03M215.451 8.41249V105.176M308.03 8.41249H400.609M308.03 8.41249V105.176M400.609 8.41249H493.188M400.609 8.41249V105.176M493.188 8.41249H585.767M493.188 8.41249V105.176M585.767 8.41249H678.346M585.767 8.41249V105.176M678.346 8.41249H770.925M678.346 8.41249V105.176M770.925 8.41249H863.504M770.925 8.41249V105.176M863.504 8.41249H956.083M863.504 8.41249V105.176M956.083 8.41249H1048.66M956.083 8.41249V105.176M1048.66 8.41249H1141.24M1048.66 8.41249V105.176M1141.24 8.41249H1233.82M1141.24 8.41249V105.176M1233.82 8.41249H1326.4M1233.82 8.41249V105.176M1326.4 8.41249V105.176M30.2929 105.176H-62.2861M30.2929 105.176H122.872M30.2929 105.176V201.941M-62.2861 105.176V201.941M122.872 105.176H215.451M122.872 105.176V201.941M215.451 105.176H308.03M215.451 105.176V201.941M308.03 105.176H400.609M308.03 105.176V201.941M400.609 105.176H493.188M400.609 105.176V201.941M493.188 105.176H585.767M493.188 105.176V201.941M585.767 105.176H678.346M585.767 105.176V201.941M678.346 105.176H770.925M678.346 105.176V201.941M770.925 105.176H863.504M770.925 105.176V201.941M863.504 105.176H956.083M863.504 105.176V201.941M956.083 105.176H1048.66M956.083 105.176V201.941M1048.66 105.176H1141.24M1048.66 105.176V201.941M1141.24 105.176H1233.82M1141.24 105.176V201.941M1233.82 105.176H1326.4M1233.82 105.176V201.941M1326.4 105.176V201.941M30.2929 201.941H-62.2861M30.2929 201.941H122.872M30.2929 201.941V298.706M-62.2861 201.941V298.706M122.872 201.941H215.451M122.872 201.941V298.706M215.451 201.941H308.03M215.451 201.941V298.706M308.03 201.941H400.609M308.03 201.941V298.706M400.609 201.941H493.188M400.609 201.941V298.706M493.188 201.941H585.767M493.188 201.941V298.706M585.767 201.941H678.346M585.767 201.941V298.706M678.346 201.941H770.925M678.346 201.941V298.706M770.925 201.941H863.504M770.925 201.941V298.706M863.504 201.941H956.083M863.504 201.941V298.706M956.083 201.941H1048.66M956.083 201.941V298.706M1048.66 201.941H1141.24M1048.66 201.941V298.706M1141.24 201.941H1233.82M1141.24 201.941V298.706M1233.82 201.941H1326.4M1233.82 201.941V298.706M1326.4 201.941V298.706M30.2929 298.706H-62.2861M30.2929 298.706H122.872M30.2929 298.706V395.469M-62.2861 298.706V395.469M122.872 298.706H215.451M122.872 298.706V395.469M215.451 298.706H308.03M215.451 298.706V395.469M308.03 298.706H400.609M308.03 298.706V395.469M400.609 298.706H493.188M400.609 298.706V395.469M493.188 298.706H585.767M493.188 298.706V395.469M585.767 298.706H678.346M585.767 298.706V395.469M678.346 298.706H770.925M678.346 298.706V395.469M770.925 298.706H863.504M770.925 298.706V395.469M863.504 298.706H956.083M863.504 298.706V395.469M956.083 298.706H1048.66M956.083 298.706V395.469M1048.66 298.706H1141.24M1048.66 298.706V395.469M1141.24 298.706H1233.82M1141.24 298.706V395.469M1233.82 298.706H1326.4M1233.82 298.706V395.469M1326.4 298.706V395.469M30.2929 395.469H-62.2861M30.2929 395.469H122.872M30.2929 395.469V492.234M-62.2861 395.469V492.234M122.872 395.469H215.451M122.872 395.469V492.234M215.451 395.469H308.03M215.451 395.469V492.234M308.03 395.469H400.609M308.03 395.469V492.234M400.609 395.469H493.188M400.609 395.469V492.234M493.188 395.469H585.767M493.188 395.469V492.234M585.767 395.469H678.346M585.767 395.469V492.234M678.346 395.469H770.925M678.346 395.469V492.234M770.925 395.469H863.504M770.925 395.469V492.234M863.504 395.469H956.083M863.504 395.469V492.234M956.083 395.469H1048.66M956.083 395.469V492.234M1048.66 395.469H1141.24M1048.66 395.469V492.234M1141.24 395.469H1233.82M1141.24 395.469V492.234M1233.82 395.469H1326.4M1233.82 395.469V492.234M1326.4 395.469V492.234M30.2929 492.234H-62.2861M30.2929 492.234H122.872M30.2929 492.234V588.998M-62.2861 492.234V588.998M122.872 492.234H215.451M122.872 492.234V588.998M215.451 492.234H308.03M215.451 492.234V588.998M308.03 492.234H400.609M308.03 492.234V588.998M400.609 492.234H493.188M400.609 492.234V588.998M493.188 492.234H585.767M493.188 492.234V588.998M585.767 492.234H678.346M585.767 492.234V588.998M678.346 492.234H770.925M678.346 492.234V588.998M770.925 492.234H863.504M770.925 492.234V588.998M863.504 492.234H956.083M863.504 492.234V588.998M956.083 492.234H1048.66M956.083 492.234V588.998M1048.66 492.234H1141.24M1048.66 492.234V588.998M1141.24 492.234H1233.82M1141.24 492.234V588.998M1233.82 492.234H1326.4M1233.82 492.234V588.998M1326.4 492.234V588.998M30.2929 588.998H-62.2861M30.2929 588.998H122.872M30.2929 588.998V685.763M-62.2861 588.998V685.763M122.872 588.998H215.451M122.872 588.998V685.763M215.451 588.998H308.03M215.451 588.998V685.763M308.03 588.998H400.609M308.03 588.998V685.763M400.609 588.998H493.188M400.609 588.998V685.763M493.188 588.998H585.767M493.188 588.998V685.763M585.767 588.998H678.346M585.767 588.998V685.763M678.346 588.998H770.925M678.346 588.998V685.763M770.925 588.998H863.504M770.925 588.998V685.763M863.504 588.998H956.083M863.504 588.998V685.763M956.083 588.998H1048.66M956.083 588.998V685.763M1048.66 588.998H1141.24M1048.66 588.998V685.763M1141.24 588.998H1233.82M1141.24 588.998V685.763M1233.82 588.998H1326.4M1233.82 588.998V685.763M1326.4 588.998V685.763M30.2929 685.763H-62.2861M30.2929 685.763H122.872M30.2929 685.763V782.528M-62.2861 685.763V782.528M122.872 685.763H215.451M122.872 685.763V782.528M215.451 685.763H308.03M215.451 685.763V782.528M308.03 685.763H400.609M308.03 685.763V782.528M400.609 685.763H493.188M400.609 685.763V782.528M493.188 685.763H585.767M493.188 685.763V782.528M585.767 685.763H678.346M585.767 685.763V782.528M678.346 685.763H770.925M678.346 685.763V782.528M770.925 685.763H863.504M770.925 685.763V782.528M863.504 685.763H956.083M863.504 685.763V782.528M956.083 685.763H1048.66M956.083 685.763V782.528M1048.66 685.763H1141.24M1048.66 685.763V782.528M1141.24 685.763H1233.82M1141.24 685.763V782.528M1233.82 685.763H1326.4M1233.82 685.763V782.528M1326.4 685.763V782.528M30.2929 782.528H-62.2861M30.2929 782.528H122.872M30.2929 782.528V879.291M-62.2861 782.528V879.291M122.872 782.528H215.451M122.872 782.528V879.291M215.451 782.528H308.03M215.451 782.528V879.291M308.03 782.528H400.609M308.03 782.528V879.291M400.609 782.528H493.188M400.609 782.528V879.291M493.188 782.528H585.767M493.188 782.528V879.291M585.767 782.528H678.346M585.767 782.528V879.291M678.346 782.528H770.925M678.346 782.528V879.291M770.925 782.528H863.504M770.925 782.528V879.291M863.504 782.528H956.083M863.504 782.528V879.291M956.083 782.528H1048.66M956.083 782.528V879.291M1048.66 782.528H1141.24M1048.66 782.528V879.291M1141.24 782.528H1233.82M1141.24 782.528V879.291M1233.82 782.528H1326.4M1233.82 782.528V879.291M1326.4 782.528V879.291M30.2929 879.291H-62.2861M30.2929 879.291H122.872M30.2929 879.291V976.056M-62.2861 879.291V976.056M122.872 879.291H215.451M122.872 879.291V976.056M215.451 879.291H308.03M215.451 879.291V976.056M308.03 879.291H400.609M308.03 879.291V976.056M400.609 879.291H493.188M400.609 879.291V976.056M493.188 879.291H585.767M493.188 879.291V976.056M585.767 879.291H678.346M585.767 879.291V976.056M678.346 879.291H770.925M678.346 879.291V976.056M770.925 879.291H863.504M770.925 879.291V976.056M863.504 879.291H956.083M863.504 879.291V976.056M956.083 879.291H1048.66M956.083 879.291V976.056M1048.66 879.291H1141.24M1048.66 879.291V976.056M1141.24 879.291H1233.82M1141.24 879.291V976.056M1233.82 879.291H1326.4M1233.82 879.291V976.056M1326.4 879.291V976.056M30.2929 976.056H-62.2861M30.2929 976.056H122.872M30.2929 976.056V1072.82M-62.2861 976.056V1072.82M122.872 976.056H215.451M122.872 976.056V1072.82M215.451 976.056H308.03M215.451 976.056V1072.82M308.03 976.056H400.609M308.03 976.056V1072.82M400.609 976.056H493.188M400.609 976.056V1072.82M493.188 976.056H585.767M493.188 976.056V1072.82M585.767 976.056H678.346M585.767 976.056V1072.82M678.346 976.056H770.925M678.346 976.056V1072.82M770.925 976.056H863.504M770.925 976.056V1072.82M863.504 976.056H956.083M863.504 976.056V1072.82M956.083 976.056H1048.66M956.083 976.056V1072.82M1048.66 976.056H1141.24M1048.66 976.056V1072.82M1141.24 976.056H1233.82M1141.24 976.056V1072.82M1233.82 976.056H1326.4M1233.82 976.056V1072.82M1326.4 976.056V1072.82M30.2929 1072.82H-62.2861M30.2929 1072.82H122.872M30.2929 1072.82V1169.58M-62.2861 1072.82V1169.58H30.2929M122.872 1072.82H215.451M122.872 1072.82V1169.58M215.451 1072.82H308.03M215.451 1072.82V1169.58M308.03 1072.82H400.609M308.03 1072.82V1169.58M400.609 1072.82H493.188M400.609 1072.82V1169.58M493.188 1072.82H585.767M493.188 1072.82V1169.58M585.767 1072.82H678.346M585.767 1072.82V1169.58M678.346 1072.82H770.925M678.346 1072.82V1169.58M770.925 1072.82H863.504M770.925 1072.82V1169.58M863.504 1072.82H956.083M863.504 1072.82V1169.58M956.083 1072.82H1048.66M956.083 1072.82V1169.58M1048.66 1072.82H1141.24M1048.66 1072.82V1169.58M1141.24 1072.82H1233.82M1141.24 1072.82V1169.58M1233.82 1072.82H1326.4M1233.82 1072.82V1169.58M1326.4 1072.82V1169.58H1233.82M30.2929 1169.58H122.872M122.872 1169.58H215.451M215.451 1169.58H308.03M308.03 1169.58H400.609M400.609 1169.58H493.188M493.188 1169.58H585.767M585.767 1169.58H678.346M678.346 1169.58H770.925M770.925 1169.58H863.504M863.504 1169.58H956.083M956.083 1169.58H1048.66M1048.66 1169.58H1141.24M1141.24 1169.58H1233.82" stroke="url(#paint5_radial_181_1378)" stroke-opacity="0.2"/>
</g>
</g>
<defs>
<radialGradient id="paint0_radial_181_1378" cx="0" cy="0" r="1" gradientUnits="userSpaceOnUse" gradientTransform="translate(263.361 494.534) rotate(90.677) scale(68.5865 119.024)">
<stop stop-color="white" stop-opacity="0.8"/>
<stop offset="1" stop-color="#05041F"/>
</radialGradient>
<radialGradient id="paint1_radial_181_1378" cx="0" cy="0" r="1" gradientUnits="userSpaceOnUse" gradientTransform="translate(632.686 203.266) rotate(90) scale(72.8153 126.361)">
<stop stop-color="white" stop-opacity="0.8"/>
<stop offset="1" stop-color="#05041F"/>
</radialGradient>
<radialGradient id="paint2_radial_181_1378" cx="0" cy="0" r="1" gradientUnits="userSpaceOnUse" gradientTransform="translate(539.591 780.716) rotate(91.981) scale(70.317 122.039)">
<stop stop-color="white" stop-opacity="0.8"/>
<stop offset="1" stop-color="#05041F"/>
</radialGradient>
<radialGradient id="paint3_radial_181_1378" cx="0" cy="0" r="1" gradientUnits="userSpaceOnUse" gradientTransform="translate(912.224 590.208) rotate(90.6768) scale(68.5866 119.024)">
<stop stop-color="white" stop-opacity="0.8"/>
<stop offset="1" stop-color="#05041F"/>
</radialGradient>
<radialGradient id="paint4_radial_181_1378" cx="0" cy="0" r="1" gradientUnits="userSpaceOnUse" gradientTransform="translate(632.751 492.839) rotate(90) scale(74.5086 129.299)">
<stop stop-color="white" stop-opacity="0.8"/>
<stop offset="1" stop-color="#05041F"/>
</radialGradient>
<radialGradient id="paint5_radial_181_1378" cx="0" cy="0" r="1" gradientUnits="userSpaceOnUse" gradientTransform="translate(632.831 444.457) rotate(90) scale(513.94 491.711)">
<stop stop-color="white"/>
<stop offset="1" stop-color="white" stop-opacity="0"/>
</radialGradient>
<clipPath id="clip0_181_1378">
<rect width="1260" height="702" fill="white"/>
</clipPath>
</defs>
</svg>
